<?xml version="1.0" standalone="no"?>
<!DOCTYPE svg PUBLIC "-//W3C//DTD SVG 20010904//EN"
 "http://www.w3.org/TR/2001/REC-SVG-20010904/DTD/svg10.dtd">
<svg version="1.0" xmlns="http://www.w3.org/2000/svg"
 width="500.000000pt" height="500.000000pt" viewBox="0 0 500.000000 500.000000"
 preserveAspectRatio="xMidYMid meet">
<metadata>
Created by potrace 1.14, written by Peter Selinger 2001-2017
</metadata>
<g transform="translate(0.000000,500.000000) scale(0.100000,-0.100000)"
fill="#000000" stroke="none">
<path d="M1234 4938 c-183 -142 -416 -405 -558 -628 -80 -126 -193 -367 -245
-525 -97 -290 -138 -573 -128 -885 18 -545 202 -1050 542 -1481 87 -110 327
-344 438 -428 274 -205 569 -347 895 -432 161 -41 159 -36 -9 20 -693 231
-1219 744 -1479 1446 -107 287 -135 450 -135 780 1 250 13 368 56 555 67 289
226 637 399 873 205 279 521 545 840 705 l124 62 -330 0 -331 0 -79 -62z"/>
<path d="M3927 4960 c230 -108 448 -265 654 -470 131 -131 308 -347 309 -376
0 -8 -20 -10 -64 -7 -35 3 -102 2 -148 -1 l-84 -7 -43 -152 c-83 -292 -311
-961 -541 -1590 -36 -98 -59 -120 -91 -91 -22 19 -91 229 -222 674 -89 300
-247 859 -295 1045 l-29 110 -254 0 c-140 -1 -274 -4 -299 -8 l-46 -8 4 -919
4 -920 -86 0 -86 0 0 865 0 865 -74 0 -75 0 -128 -167 c-70 -93 -132 -173
-138 -179 -6 -6 -63 -81 -126 -165 -140 -187 -420 -558 -612 -811 -124 -163
-199 -264 -285 -383 -19 -26 -22 -39 -16 -75 14 -86 -39 -80 679 -80 l635 0 0
-375 0 -375 70 0 70 0 0 375 0 375 86 0 85 0 -5 -82 c-3 -46 -8 -187 -11 -314
l-6 -232 27 -6 c35 -9 273 4 279 15 3 4 1 144 -4 310 -9 294 -9 304 10 317 15
10 19 25 19 68 0 47 -2 54 -20 54 -20 0 -20 6 -19 308 1 466 14 893 28 920 44
82 94 -39 310 -758 102 -339 236 -808 292 -1020 23 -91 47 -171 52 -178 18
-23 261 -10 289 17 4 3 40 108 79 231 160 505 536 1554 578 1610 21 29 50 38
62 18 12 -19 11 -669 -2 -1170 -6 -233 -12 -493 -13 -578 l-1 -155 41 -3 c40
-3 43 -1 79 50 21 29 65 96 97 148 l58 94 0 1209 0 1209 -37 62 c-152 252
-357 491 -579 672 l-91 74 -224 -1 -224 0 82 -39z m-1455 -1952 l-2 -763 -570
-2 c-445 -2 -569 0 -564 10 16 26 147 203 158 212 6 6 68 86 136 179 105 142
411 553 523 703 18 23 95 127 172 232 77 105 142 190 145 191 3 0 4 -343 2
-762z"/>
<path d="M4870 887 c-515 -507 -1176 -803 -1890 -846 -126 -8 -129 -8 -45 -9
116 -2 299 14 445 39 488 83 939 292 1321 613 157 131 299 276 299 305 0 11
-1 21 -2 21 -2 0 -59 -56 -128 -123z"/>
</g>
</svg>
